HIERARCHY
ROOT Hips
{
	OFFSET -0.001795 -0.223333 0.028219
	CHANNELS 6 Xposition Yposition Zposition Zrotation Yrotation Xrotation 
	JOINT LeftUpLeg
	{
		OFFSET 0.069520 -0.091406 -0.006815
		CHANNELS 3 Zrotation Yrotation Xrotation
		JOINT LeftLeg
		{
			OFFSET 0.034277 -0.375199 -0.004496
			CHANNELS 3 Zrotation Yrotation Xrotation
			JOINT LeftFoot
			{
				OFFSET -0.013596 -0.397961 -0.043693
				CHANNELS 3 Zrotation Yrotation Xrotation
				JOINT LeftToe
				{
					OFFSET 0.026358 -0.055791 0.119288
					CHANNELS 3 Zrotation Yrotation Xrotation
					End Site
					{
						OFFSET 0.000000 0.000000 0.000000
					}
				}
			}
		}
	}
	JOINT RightUpLeg
	{
		OFFSET -0.067670 -0.090522 -0.004320
		CHANNELS 3 Zrotation Yrotation Xrotation
		JOINT RightLeg
		{
			OFFSET -0.038290 -0.382569 -0.008850
			CHANNELS 3 Zrotation Yrotation Xrotation
			JOINT RightFoot
			{
				OFFSET 0.015774 -0.398415 -0.042312
				CHANNELS 3 Zrotation Yrotation Xrotation
				JOINT RightToe
				{
					OFFSET -0.025372 -0.048144 0.123348
					CHANNELS 3 Zrotation Yrotation Xrotation
					End Site
					{
						OFFSET 0.000000 0.000000 0.000000
					}
				}
			}
		}
	}
	JOINT Spine
	{
		OFFSET -0.002533 0.108963 -0.026696
		CHANNELS 3 Zrotation Yrotation Xrotation
		JOINT Spine1
		{
			OFFSET 0.005487 0.135180 0.001092
			CHANNELS 3 Zrotation Yrotation Xrotation
			JOINT Spine2
			{
				OFFSET 0.001457 0.052922 0.025425
				CHANNELS 3 Zrotation Yrotation Xrotation
				JOINT Neck
				{
					OFFSET -0.002778 0.213870 -0.042857
					CHANNELS 3 Zrotation Yrotation Xrotation
					JOINT Head
					{
						OFFSET 0.005152 0.064970 0.051349
						CHANNELS 3 Zrotation Yrotation Xrotation
						End Site
						{
							OFFSET 0.000000 0.000000 0.000000
						}
					}
				}
				JOINT LeftShoulder
				{
					OFFSET 0.078845 0.121749 -0.034090
					CHANNELS 3 Zrotation Yrotation Xrotation
					JOINT LeftArm
					{
						OFFSET 0.090977 0.030469 -0.008868
						CHANNELS 3 Zrotation Yrotation Xrotation
						JOINT LeftForeArm
						{
							OFFSET 0.259612 -0.012772 -0.027456
							CHANNELS 3 Zrotation Yrotation Xrotation
							JOINT LeftHand
							{
								OFFSET 0.249234 0.008986 -0.001171
								CHANNELS 3 Zrotation Yrotation Xrotation
								End Site
								{
									OFFSET 0.000000 0.000000 0.000000
								}
							}
						}
					}
				}
				JOINT RightShoulder
				{
					OFFSET -0.081759 0.118833 -0.038615
					CHANNELS 3 Zrotation Yrotation Xrotation
					JOINT RightArm
					{
						OFFSET -0.096012 0.032551 -0.009143
						CHANNELS 3 Zrotation Yrotation Xrotation
						JOINT RightForeArm
						{
							OFFSET -0.253742 -0.013329 -0.021401
							CHANNELS 3 Zrotation Yrotation Xrotation
							JOINT RightHand
							{
								OFFSET -0.255298 0.007772 -0.005559
								CHANNELS 3 Zrotation Yrotation Xrotation
								End Site
								{
									OFFSET 0.000000 0.000000 0.000000
								}
							}
						}
					}
				}
			}
		}
	}
}
MOTION
Frames: 12
Frame Time: 0.050000
0.006076 0.930835 -0.057333 2.303519 -2.927390 -1.859979 -4.089520 0.629132 4.657768 1.182453 0.061721 -4.447851 6.770878 14.865420 6.998464 0.000000 0.000000 0.000000 -8.165298 0.239420 -0.755616 3.825936 -0.355034 3.197755 -5.529016 -14.854116 6.889175 0.000000 0.000000 0.000000 -2.278037 0.113233 -4.703621 -3.779150 1.948147 4.672937 5.008771 2.063685 1.243798 2.563139 -1.050790 -9.652916 0.000000 0.000000 0.000000 -34.052751 -11.934371 5.225997 -42.429896 -5.409679 -3.055117 -28.519116 -81.626398 28.676686 0.000000 0.000000 0.000000 16.619216 28.030798 12.970143 11.317914 51.410535 1.595374 -113.781341 41.809656 -55.339212 0.000000 0.000000 0.000000 
0.006416 0.931055 -0.057808 2.375318 -2.805943 -1.620150 -4.345033 0.607919 4.395326 1.477080 0.047000 -4.599222 6.674725 14.698462 7.003403 0.000000 0.000000 0.000000 -8.225211 0.248212 -0.958015 3.864837 -0.361928 3.081223 -5.649612 -15.103788 6.975005 0.000000 0.000000 0.000000 -2.227967 0.124164 -5.019901 -3.797962 1.955190 4.691265 4.962260 2.114143 1.454782 2.381329 -0.934604 -9.527070 0.000000 0.000000 0.000000 -34.120659 -11.645103 4.963598 -42.723200 -4.386556 -3.412244 -30.662909 -81.502165 30.481495 0.000000 0.000000 0.000000 16.772057 28.016184 13.037291 12.098382 51.347012 1.904267 -115.004483 42.320696 -57.024129 0.000000 0.000000 0.000000 
0.006776 0.931040 -0.058247 2.500829 -2.657706 -1.352067 -4.609623 0.593730 4.182967 1.588414 0.046065 -4.737013 6.653296 14.652098 6.877948 0.000000 0.000000 0.000000 -8.322757 0.260658 -1.275947 3.808728 -0.357250 2.945279 -5.766530 -15.346615 7.074750 0.000000 0.000000 0.000000 -2.360822 0.125404 -5.232542 -3.890323 1.999502 4.655515 4.965833 2.196073 1.611904 2.119355 -0.730517 -9.725081 0.000000 0.000000 0.000000 -33.992801 -11.518673 4.798877 -42.820530 -3.748276 -3.619451 -33.769736 -81.624647 33.259509 0.000000 0.000000 0.000000 16.931410 27.931731 13.074462 12.577355 51.099034 2.077232 -116.579451 42.730874 -58.926788 0.000000 0.000000 0.000000 
0.007068 0.931111 -0.058669 2.645498 -2.424263 -1.215597 -4.895934 0.595069 4.088998 1.746057 0.042340 -4.876078 6.514866 14.408021 6.814255 0.000000 0.000000 0.000000 -8.383283 0.264083 -1.461107 3.640254 -0.338684 2.926606 -5.928684 -15.680466 7.211642 0.000000 0.000000 0.000000 -2.473572 0.124207 -5.381652 -3.941828 2.024610 4.748837 4.942380 2.131306 1.592996 1.880975 -0.594518 -9.416851 0.000000 0.000000 0.000000 -34.041354 -11.321115 4.625752 -42.946158 -3.104875 -3.834671 -38.339781 -81.579875 37.276754 0.000000 0.000000 0.000000 16.943534 27.892123 13.073864 12.958459 50.748415 2.206984 -118.564759 43.012336 -61.160140 0.000000 0.000000 0.000000 
0.007319 0.931121 -0.059078 2.651991 -2.429397 -1.092245 -4.926490 0.583037 3.982345 1.819724 0.035585 -4.847587 6.505776 14.368069 6.590471 0.000000 0.000000 0.000000 -8.389368 0.271856 -1.660022 3.583576 -0.330837 2.978671 -5.872777 -15.556858 7.110058 0.000000 0.000000 0.000000 -2.582020 0.119079 -5.293566 -3.974243 2.036951 4.590416 5.022852 2.166981 1.650856 1.503277 -0.327481 -9.553448 0.000000 0.000000 0.000000 -33.988396 -11.374747 4.660216 -42.871511 -3.103250 -3.829545 -42.617589 -81.658149 41.159433 0.000000 0.000000 0.000000 16.842444 28.105367 13.179250 12.960333 50.567080 2.190974 -120.185670 43.112615 -62.874013 0.000000 0.000000 0.000000 
0.007529 0.931032 -0.059483 2.605300 -2.337900 -0.902789 -4.953360 0.564541 3.824783 1.998824 0.026385 -4.907015 6.402466 14.176449 6.487911 0.000000 0.000000 0.000000 -8.320558 0.276173 -1.803140 3.419541 -0.310767 2.997378 -5.908562 -15.637864 7.209566 0.000000 0.000000 0.000000 -2.666707 0.116863 -5.288067 -3.957873 2.022991 4.507020 5.077091 2.025786 1.438358 1.256287 -0.167009 -9.559047 0.000000 0.000000 0.000000 -34.013866 -11.288018 4.643491 -42.946715 -3.032882 -3.858495 -47.184489 -81.469632 45.169721 0.000000 0.000000 0.000000 16.840525 28.183373 13.189540 12.997985 50.415782 2.205423 -121.584960 43.219034 -64.490605 0.000000 0.000000 0.000000 
0.007779 0.930984 -0.059783 2.628086 -2.473583 -0.775974 -5.032814 0.533218 3.567579 2.057378 0.012656 -4.733937 6.415450 14.182524 6.359858 0.000000 0.000000 0.000000 -8.361349 0.288519 -2.045047 3.442734 -0.309529 3.223542 -6.048021 -15.903913 7.088109 0.000000 0.000000 0.000000 -2.856760 0.110171 -5.215036 -3.961622 2.023037 4.369937 5.153829 1.945938 1.340305 0.967082 0.025345 -9.675401 0.000000 0.000000 0.000000 -34.178892 -11.367584 4.786667 -42.822408 -3.412806 -3.737198 -47.722796 -81.270980 45.559425 0.000000 0.000000 0.000000 16.860316 28.461407 13.301223 12.802368 50.222841 2.117099 -122.821807 42.946481 -65.460091 0.000000 0.000000 0.000000 
0.008132 0.930804 -0.059934 2.536112 -2.546731 -0.687629 -5.107073 0.535505 3.554924 2.173549 0.007533 -4.793214 6.384880 14.131264 6.395471 0.000000 0.000000 0.000000 -8.269947 0.291935 -2.088757 3.314772 -0.292235 3.233036 -6.125506 -16.063049 7.125180 0.000000 0.000000 0.000000 -2.887228 0.111311 -5.261124 -3.910058 1.994880 4.316900 5.076891 1.871521 1.314754 0.729824 0.185123 -9.769210 0.000000 0.000000 0.000000 -34.272509 -11.331610 4.806394 -42.874523 -3.752956 -3.638975 -47.644606 -81.112859 45.401782 0.000000 0.000000 0.000000 17.255657 28.479734 13.369410 12.803061 50.136300 2.113130 -123.855579 42.966267 -66.613590 0.000000 0.000000 0.000000 
0.008572 0.930655 -0.059924 2.517288 -2.632762 -0.688627 -5.146975 0.546815 3.624866 2.175294 0.004444 -4.745431 6.387446 14.118450 6.230643 0.000000 0.000000 0.000000 -8.274475 0.295990 -2.173241 3.269256 -0.282612 3.454450 -6.210771 -16.218082 6.989163 0.000000 0.000000 0.000000 -3.004311 0.105624 -5.170214 -3.947870 2.014818 4.255831 5.205168 1.697542 1.289075 0.588177 0.261946 -9.765620 0.000000 0.000000 0.000000 -34.550443 -11.381993 4.978572 -42.796591 -4.113689 -3.549361 -46.925127 -80.998983 44.751449 0.000000 0.000000 0.000000 17.194178 28.544534 13.318289 12.836573 50.066316 2.121876 -124.074533 42.693881 -66.578352 0.000000 0.000000 0.000000 
0.009074 0.930412 -0.059829 2.515391 -2.779111 -0.785516 -5.128397 0.549134 3.656474 2.029088 0.006996 -4.604527 6.381686 14.109870 6.282315 0.000000 0.000000 0.000000 -8.296795 0.297561 -2.175745 3.145546 -0.262900 3.615948 -6.133814 -16.068330 6.970676 0.000000 0.000000 0.000000 -3.127404 0.099588 -5.090271 -4.002062 2.049720 4.358584 5.318901 1.518132 1.137882 0.488319 0.335959 -10.145613 0.000000 0.000000 0.000000 -34.905795 -11.321063 5.081193 -42.828396 -4.307388 -3.520847 -44.869485 -80.940895 42.941263 0.000000 0.000000 0.000000 17.308034 28.524930 13.242772 12.980551 50.040890 2.185427 -123.964617 42.693262 -66.606246 0.000000 0.000000 0.000000 
0.009564 0.930301 -0.059749 2.429389 -2.935004 -0.904213 -5.132521 0.567271 3.795980 2.079631 -0.000993 -4.538179 6.411147 14.152486 6.195046 0.000000 0.000000 0.000000 -8.157837 0.294435 -2.100252 3.094893 -0.253401 3.717852 -6.170009 -16.162031 7.108774 0.000000 0.000000 0.000000 -3.131113 0.097319 -4.987332 -4.101182 2.104082 4.300603 5.481025 1.245878 1.152570 0.492400 0.319636 -10.350934 0.000000 0.000000 0.000000 -35.382874 -11.111412 5.137643 -42.854410 -4.391508 -3.558636 -43.804251 -80.916200 42.085247 0.000000 0.000000 0.000000 17.449673 28.565681 13.178443 12.780407 50.189531 2.114148 -123.287087 42.777174 -66.187809 0.000000 0.000000 0.000000 
0.010005 0.930149 -0.059831 2.464141 -3.185999 -0.915236 -5.185052 0.569847 3.801553 1.970218 0.005114 -4.513968 6.471847 14.258573 6.217962 0.000000 0.000000 0.000000 -8.260422 0.304704 -2.241379 3.026536 -0.237917 3.968741 -6.021673 -15.862361 6.987204 0.000000 0.000000 0.000000 -3.239788 0.094215 -4.951172 -4.214529 2.171322 4.370548 5.642128 1.134850 0.914665 0.504256 0.318157 -10.727543 0.000000 0.000000 0.000000 -35.666749 -11.048357 5.232144 -42.954209 -4.402767 -3.587357 -41.329454 -81.065990 40.040820 0.000000 0.000000 0.000000 17.465327 28.593347 13.109709 12.401715 50.440936 1.990937 -122.191605 42.789093 -65.194951 0.000000 0.000000 0.000000 
